<?xml version="1.0" encoding="UTF-8" standalone="no"?>
<!DOCTYPE svg PUBLIC "-//W3C//DTD SVG 1.1//EN"
 "http://www.w3.org/Graphics/SVG/1.1/DTD/svg11.dtd">
<!-- Generated by graphviz version 2.43.0 (0)
 -->
<!-- Title: snakemake_dag Pages: 1 -->
<svg width="188pt" height="188pt"
 viewBox="0.00 0.00 187.50 188.00" xmlns="http://www.w3.org/2000/svg" xmlns:xlink="http://www.w3.org/1999/xlink">
<g id="graph0" class="graph" transform="scale(1 1) rotate(0) translate(4 184)">
<title>snakemake_dag</title>
<polygon fill="white" stroke="transparent" points="-4,4 -4,-184 183.5,-184 183.5,4 -4,4"/>
<!-- 0 -->
<g id="node1" class="node">
<title>0</title>
<path fill="none" stroke="#d85656" stroke-width="2" d="M98,-36C98,-36 68,-36 68,-36 62,-36 56,-30 56,-24 56,-24 56,-12 56,-12 56,-6 62,0 68,0 68,0 98,0 98,0 104,0 110,-6 110,-12 110,-12 110,-24 110,-24 110,-30 104,-36 98,-36"/>
<text text-anchor="middle" x="83" y="-15.5" font-family="sans" font-size="10.00">all</text>
</g>
<!-- 1 -->
<g id="node2" class="node">
<title>1</title>
<path fill="none" stroke="#59d856" stroke-width="2" d="M110.5,-108C110.5,-108 55.5,-108 55.5,-108 49.5,-108 43.5,-102 43.5,-96 43.5,-96 43.5,-84 43.5,-84 43.5,-78 49.5,-72 55.5,-72 55.5,-72 110.5,-72 110.5,-72 116.5,-72 122.5,-78 122.5,-84 122.5,-84 122.5,-96 122.5,-96 122.5,-102 116.5,-108 110.5,-108"/>
<text text-anchor="middle" x="83" y="-87.5" font-family="sans" font-size="10.00">combine_vcfs</text>
</g>
<!-- 1&#45;&gt;0 -->
<g id="edge1" class="edge">
<title>1&#45;&gt;0</title>
<path fill="none" stroke="grey" stroke-width="2" d="M83,-71.7C83,-63.98 83,-54.71 83,-46.11"/>
<polygon fill="grey" stroke="grey" stroke-width="2" points="86.5,-46.1 83,-36.1 79.5,-46.1 86.5,-46.1"/>
</g>
<!-- 2 -->
<g id="node3" class="node">
<title>2</title>
<path fill="none" stroke="#d6d856" stroke-width="2" d="M56,-180C56,-180 12,-180 12,-180 6,-180 0,-174 0,-168 0,-168 0,-156 0,-156 0,-150 6,-144 12,-144 12,-144 56,-144 56,-144 62,-144 68,-150 68,-156 68,-156 68,-168 68,-168 68,-174 62,-180 56,-180"/>
<text text-anchor="middle" x="34" y="-159.5" font-family="sans" font-size="10.00">vcf_header</text>
</g>
<!-- 2&#45;&gt;1 -->
<g id="edge2" class="edge">
<title>2&#45;&gt;1</title>
<path fill="none" stroke="grey" stroke-width="2" d="M46.11,-143.7C51.87,-135.47 58.86,-125.48 65.21,-116.42"/>
<polygon fill="grey" stroke="grey" stroke-width="2" points="68.16,-118.3 71.03,-108.1 62.42,-114.29 68.16,-118.3"/>
</g>
<!-- 3 -->
<g id="node4" class="node">
<title>3</title>
<path fill="none" stroke="#56d8d8" stroke-width="2" d="M167.5,-180C167.5,-180 98.5,-180 98.5,-180 92.5,-180 86.5,-174 86.5,-168 86.5,-168 86.5,-156 86.5,-156 86.5,-150 92.5,-144 98.5,-144 98.5,-144 167.5,-144 167.5,-144 173.5,-144 179.5,-150 179.5,-156 179.5,-156 179.5,-168 179.5,-168 179.5,-174 173.5,-180 167.5,-180"/>
<text text-anchor="middle" x="133" y="-159.5" font-family="sans" font-size="10.00">convert_scaf_vcf</text>
</g>
<!-- 3&#45;&gt;1 -->
<g id="edge3" class="edge">
<title>3&#45;&gt;1</title>
<path fill="none" stroke="grey" stroke-width="2" d="M120.64,-143.7C114.77,-135.47 107.63,-125.48 101.16,-116.42"/>
<polygon fill="grey" stroke="grey" stroke-width="2" points="103.88,-114.21 95.22,-108.1 98.18,-118.28 103.88,-114.21"/>
</g>
</g>
</svg>
